# xmcd CD database file
#
# Track frame offsets:
#	150
#	15037
#	38120
#	60665
#	81577
#	96535
#	107297
#	127475
#	136782
#	151997
#	173615
#	192392
#	216260
#	227417
#	257237
#	265737
#
# Disc length: 3664 seconds
#
# Revision: 2
# Processed by: cddbd v1.5PL3 Copyright (c) Steve Scherf et al.
# Submitted via: CDex 1.51
#
DISCID=d60e4e10
DTITLE=Roy Buchanan - Deluxe Edition
DYEAR=2001
DGENRE=Blues
TTITLE0=Peter Gunn
TTITLE1=That Did It
TTITLE2=Chicago Smokeshop
TTITLE3=Mrs. Pressure
TTITLE4=Ain't No Business
TTITLE5=Blues For Jimmy Nolan
TTITLE6=A Nickel And A Nail
TTITLE7=Matthew
TTITLE8=You Can't Judge A Book By The Cover
TTITLE9=Beer Drinking Woman
TTITLE10=Flash Chordin'
TTITLE11=These Arms Of Mine
TTITLE12=Whiplash
TTITLE13=When A Guitar Plays The Blues
TTITLE14=Hawaiian Punch
TTITLE15=The Last Word
EXTD=YEAR: 2001
EXTT0=
EXTT1=
EXTT2=
EXTT3=
EXTT4=
EXTT5=
EXTT6=
EXTT7=
EXTT8=
EXTT9=
EXTT10=
EXTT11=
EXTT12=
EXTT13=
EXTT14=
EXTT15=
PLAYORDER=
